HIERARCHY
ROOT Hips
{
    OFFSET 14.032432556152344 94.31307220458984 -18.309558868408203
    CHANNELS 6 Xposition Yposition Zposition Zrotation Xrotation Yrotation
    JOINT RightUpLeg
    {
        OFFSET -14.032432556152344 0.0 0.0
        CHANNELS 3 Zrotation Xrotation Yrotation
        JOINT RightLeg
        {
            OFFSET 0.0 -48.53917694091797 0.0
            CHANNELS 3 Zrotation Xrotation Yrotation
            JOINT RightFoot
            {
                OFFSET 0.0 -45.773895263671875 0.0
                CHANNELS 3 Zrotation Xrotation Yrotation
                End Site
                {
                    OFFSET 0.0 0.0 18.309558868408203
                }
            }
        }
    }
    JOINT LeftUpLeg
    {
        OFFSET 14.032432556152344 0.0 0.0
        CHANNELS 3 Zrotation Xrotation Yrotation
        JOINT LeftLeg
        {
            OFFSET 0.0 -48.53917694091797 0.0
            CHANNELS 3 Zrotation Xrotation Yrotation
            JOINT LeftFoot
            {
                OFFSET 0.0 -45.773895263671875 0.0
                CHANNELS 3 Zrotation Xrotation Yrotation
                End Site
                {
                    OFFSET 0.0 0.0 18.309558868408203
                }
            }
        }
    }
    JOINT Spine
    {
        OFFSET 0.0 25.67096519470215 0.0
        CHANNELS 3 Zrotation Xrotation Yrotation
        JOINT Spine3
        {
            OFFSET 0.0 26.10367774963379 0.0
            CHANNELS 3 Zrotation Xrotation Yrotation
            JOINT Neck
            {
                OFFSET 0.0 11.355786323547363 0.0
                CHANNELS 3 Zrotation Xrotation Yrotation
                End Site
                {
                    OFFSET 0.0 4.542314529418945 0.0
                }
            }
            JOINT LeftArm
            {
                OFFSET 14.76789665222168 0.0 0.0
                CHANNELS 3 Zrotation Xrotation Yrotation
                JOINT LeftForeArm
                {
                    OFFSET 29.23101806640625 0.0 0.0
                    CHANNELS 3 Zrotation Xrotation Yrotation
                    JOINT LeftHand
                    {
                        OFFSET 24.717853546142578 0.0 0.0
                        CHANNELS 3 Zrotation Xrotation Yrotation
                        End Site
                        {
                            OFFSET 9.887142181396484 0.0 0.0
                        }
                    }
                }
            }
            JOINT RightArm
            {
                OFFSET -14.76789665222168 0.0 0.0
                CHANNELS 3 Zrotation Xrotation Yrotation
                JOINT RightForeArm
                {
                    OFFSET -29.23101806640625 0.0 0.0
                    CHANNELS 3 Zrotation Xrotation Yrotation
                    JOINT RightHand
                    {
                        OFFSET -24.717853546142578 0.0 0.0
                        CHANNELS 3 Zrotation Xrotation Yrotation
                        End Site
                        {
                            OFFSET -9.887142181396484 0.0 0.0
                        }
                    }
                }
            }
        }
    }
}
MOTION
Frames: 11
Frame Time: 0.03333333333333333
-8.544202137272805e-05 93.78411865234375 -0.001212920993566513 -9.242208801782452 -8.805612329649316 -20.09526341663913 11.27211931537033 18.121777709016598 -4.276421474255802 -1.5257308798546176 8.73928853103733 -1.7397265817349423 5.517382872562698e-32 -3.180554681463516e-15 1.9878466759146976e-15 12.888384550904266 10.626908367492653 -2.8593457083084135 -0.21466066126451616 21.433722158294437 -5.4692850445763295 -1.5902773407317582e-15 3.578124016646456e-15 2.385416011097637e-15 -18.141266356226467 19.536838269766648 5.435676551175936 -7.360290976595402e-07 -1.8129763029251853e-07 -0.116922446265146 22.898366780154458 8.479607527655732 176.5041440967173 122.04589376826422 -40.43123606908271 -175.66343193535866 1.02619761587881e-06 -2.64399036877618e-06 32.91846699453307 1.590277340731758e-15 -6.361109362927032e-15 8.827812596100317e-32 -133.4952877673641 52.998719509802726 132.7935916504699 -7.176195037439559e-07 8.255067701458355e-07 -90.10056933517572 0.0 0.0 6.3611093629270335e-15
-8.22047732071951e-05 93.78413391113281 -0.0012369172181934118 -9.177738550101095 -8.871200120904168 -19.812701074905153 11.496126054097747 18.265257545861424 -4.343884162311438 -1.6153167966713045 8.6243686679403 -1.717042257273055 7.951386703658794e-16 -3.1805546814635168e-15 3.3793393490549868e-15 13.079465333640968 10.535579790333895 -2.849457670502359 -0.3278951956218556 20.99682554897168 -5.349542715260682 -1.5902773407317584e-15 0.0 0.0 -17.923911145465283 19.459298416998756 5.379606040885953 -2.2147341626584684e-06 -5.901231398974362e-07 0.020503013821427538 23.238995587908015 8.53942015566146 176.2511585437845 122.12809977286929 -40.68770932835708 -175.50153490601764 -3.76798947977731e-06 4.996695948514916e-06 33.38131954770921 -4.770832022195275e-15 6.3611093629270335e-15 2.648343778830095e-31 -134.7898212420793 52.13852178738005 133.0145706175649 -1.368017047662505e-06 3.0288914105083645e-06 -92.29806947733915 -3.531125038440127e-31 -6.3611093629270335e-15 -6.3611093629270335e-15
-7.230801566038281e-05 93.78412628173828 -0.0012409207411110401 -9.34312463308814 -8.80317780013473 -19.841393069309895 11.749511397458967 18.321319679037575 -4.3408000152174715 -1.6803684350819637 8.398916775924747 -1.6550998082058337 0.0 0.0 -9.93923337957349e-16 13.347295418797648 10.553026164053946 -2.8475561829784835 -0.4551762764436981 20.468059424211383 -5.16176547798895 0.0 0.0 1.5902773407317584e-15 -17.51447622616243 19.283138504013937 5.294861180428467 1.9973568201851732e-08 9.793315868966666e-08 0.031787339535606245 22.919344768023805 8.509617226044535 176.5107273148388 122.15692705757473 -41.02313367614848 -175.29551516347354 -6.943727964128963e-07 -1.7542193100599384e-06 33.298707843364156 1.5902773407317584e-15 8.827812596100317e-32 6.3611093629270335e-15 -135.81614892412807 52.037455959312126 133.47524770308607 1.9676308197477125e-06 2.4711832759857396e-07 -93.69777317761326 0.0 0.0 0.0
-7.671810453757644e-05 93.78410339355469 -0.001236537005752325 -9.433194442494516 -8.698578643689162 -19.91799106148759 11.876378175052052 18.272871498151133 -4.320514141179591 -1.5895993983619332 8.317837797048595 -1.6494427316042837 7.951386703658792e-16 -9.655420026984722e-33 -1.3914926731402886e-15 13.461960332777162 10.410871898815477 -2.8018501117571537 -0.6113411165252508 20.463085011576556 -5.090776081207072 4.138037154422024e-33 3.975693351829396e-16 -1.1927080055488188e-15 -17.505366168145134 19.15468094189554 5.312332993105584 -9.904785481177833e-07 -5.419048259887173e-07 0.07046032704001688 23.472721189081536 9.148227450076604 176.0474535143554 122.25823080915741 -40.9679795924705 -174.98453114751257 -2.087452076730433e-06 -1.4997071880053673e-06 32.82793946867334 -3.180554681463516e-15 1.7655625192200634e-31 -6.361109362927032e-15 -136.0871939905642 52.07948999155777 133.82402534232708 -2.578087198687319e-06 -5.541140250569205e-08 -93.8214275231148 -3.1805546814635168e-15 -3.1805546814635168e-15 6.3611093629270335e-15
-6.047248461982235e-05 93.7840805053711 -0.00120707624591887 -9.562765927635914 -8.643754777366341 -20.14456595033222 11.931730473895138 18.423862206470297 -4.350619003627469 -1.402733772523609 7.9945253374314476 -1.6093965805874486 7.951386703658794e-16 1.5902773407317588e-15 1.4908850069360238e-15 13.583380161330961 10.390311845273022 -2.8065760985151784 -0.677769564254135 20.339910889369047 -5.056688366358805 0.0 0.0 2.9817700138720468e-15 -17.490878508623382 19.29060504671577 5.367428709656958 7.218522498881539e-07 -6.211401459185286e-07 -0.07979110881730635 23.737833303413204 9.250885112818475 176.42783863831775 123.03334865129125 -41.58076175554747 -174.4443370695237 3.5143104909340733e-06 -2.645453932096091e-07 33.12871291425178 1.5902773407317584e-15 0.0 0.0 -135.90227985450676 52.06933584745099 134.14230137579725 -4.444858720806263e-07 2.0735900042706284e-06 -93.77508148321516 -3.1805546814635168e-15 -3.1805546814635168e-15 -8.827812596100317e-32
-4.540688678389415e-05 93.78410339355469 -0.0011962824501097202 -9.603433873031532 -8.575767320876022 -20.23847087702049 12.018092095980228 18.48184410724853 -4.395263682471626 -1.5216109944470313 7.887578977964466 -1.5831678997260936 -9.655420026984722e-33 -1.5902773407317584e-15 -6.957463365701443e-16 13.619796754644726 10.234524280147516 -2.7735181184262676 -0.733653075571328 20.625342282169772 -5.1225957379632225 8.276074308844047e-32 3.1805546814635168e-15 -2.9817700138720468e-15 -17.55790959865592 19.297004108091024 5.389969964570506 1.1063316792200498e-06 -4.956414827859322e-07 -0.17677364241803933 23.773219203552703 9.386124566223918 176.54735238333004 123.19007971489886 -41.64761650671528 -174.37694828009722 -1.6713285608583587e-06 -1.0504302426977126e-06 33.16586909111064 0.0 0.0 6.3611093629270335e-15 -134.8765845082281 52.83580567952858 133.91521647504396 1.0032187111967139e-06 3.5117497429704384e-06 -92.93525471034468 0.0 0.0 -6.3611093629270335e-15
-1.0968597052851692e-05 93.78410339355469 -0.0011530992342159152 -9.847295192403006 -8.339094892657053 -20.78880169715643 12.105696685737756 18.396693096237343 -4.3936099525850745 -1.4402573627022386 7.8242237983958605 -1.5901472064566058 -7.951386703658791e-16 1.3914926731402884e-15 -2.9817700138720465e-16 13.842843359784048 10.000366397770826 -2.745938344042957 -0.5782167044635294 20.67306553416287 -5.265483814492863 -1.5902773407317582e-15 0.0 0.0 -17.47581503701397 19.221152917332756 5.352778013239123 -8.437126446891997e-07 9.594246042089833e-07 -0.16124756145209296 23.556985029223647 8.876145500482505 176.77966531396635 122.8723422471171 -40.76253311473041 -174.57228080785652 7.32728614880119e-07 -1.6344087669335226e-06 32.66018677054502 7.951386703658792e-15 -6.3611093629270335e-15 4.413906298050159e-31 -133.493087284015 53.55886776961511 132.88998751792087 -3.378476527071276e-08 -1.1996393293991524e-06 -91.14794196875584 3.1805546814635164e-15 -1.7655625192200634e-31 -6.361109362927033e-15
3.4855020203394815e-06 93.78410339355469 -0.0011339951306581497 -9.986840827884919 -8.049638687242004 -20.969090536952006 12.35407035242085 18.129837895421772 -4.368811920503545 -1.7645627252557659 7.915986185110251 -1.5802405511598039 1.6552148617688095e-32 -1.5902773407317582e-15 1.1927080055488186e-15 14.008973769392304 10.026356189062415 -2.7584471185782835 -0.3850860978155137 20.169323654328814 -5.22392084036499 1.5902773407317584e-15 -3.1805546814635168e-15 -9.93923337957349e-16 -17.456810016786193 19.155120216594376 5.3766895749171475 -2.5502717462349327e-07 4.345121267243017e-07 -0.1731948470830411 23.707938265115324 8.664751298283074 176.65387734516864 122.7207446663166 -40.018624637648315 -174.45218052590266 7.661765891614762e-06 3.6715581294552334e-06 32.13905755232641 4.770832022195275e-15 -6.361109362927033e-15 6.361109362927033e-15 -131.9393162775354 54.43221339638381 131.6043706123963 -2.383102865744047e-07 -3.6957022360732413e-06 -88.16557417959463 -1.7655625192200634e-31 3.1805546814635168e-15 6.3611093629270335e-15
2.8395334084052593e-06 93.78410339355469 -0.0011288357200101018 -10.220088502289988 -7.832166647174082 -21.228389273255484 12.516519120613275 17.956872090340916 -4.367952349828382 -1.9189158899885657 8.081487371241646 -1.609148144754129 -7.951386703658794e-16 1.391492673140289e-15 -9.939233379573492e-17 14.338191734535604 10.18863297675335 -2.857279937149436 -0.5677560602431578 20.07724048841154 -5.234748536601089 0.0 0.0 -1.9878466759146977e-16 -17.05542733992045 19.125446230779936 5.242492553813384 1.8911755422792295e-06 -3.465029615962605e-07 -0.3163765572920709 23.79206627670581 8.622674774131077 177.04458417496798 122.12493955380765 -39.07538663952303 -174.47410024775203 2.1552889910023924e-06 -1.096786844045006e-06 31.63534314851443 -1.5902773407317576e-15 6.3611093629270335e-15 -1.2722218725854067e-14 -130.53831488371998 55.19556424472629 129.58397140077074 8.391914391473517e-07 -1.7762093782333636e-07 -85.62807521357254 -3.1805546814635168e-15 6.3611093629270335e-15 1.7655625192200634e-31
-1.6368585420423187e-05 93.7841567993164 -0.0011408432619646192 -10.243508507847944 -7.746667075716654 -21.63586552865903 12.35277864281267 17.909795749851504 -4.36928971262236 -2.045561391342428 8.261997057622668 -1.6318546207310858 7.951386703658794e-16 1.7890620083232284e-15 1.093315671753084e-15 14.169609636558526 10.285371658747792 -2.8905810282047577 -0.5153105535839476 19.948157814175875 -5.231898076408371 -1.5902773407317584e-15 -1.9310840053969444e-32 1.3914926731402886e-15 -16.77713584298473 19.00774703761949 5.044614965206112 6.389485078440869e-07 -1.938198787866195e-06 -0.301273649122574 23.862398234421274 8.663003730361659 177.51633024805724 122.22729955369456 -39.99904916655522 -174.13566159665714 5.060346458246909e-07 2.6300706554175533e-06 31.39059328864503 1.5902773407317592e-15 -6.361109362927035e-15 6.361109362927035e-15 -129.61993903745125 55.23704941844226 127.95291752799278 2.6002890653219406e-06 -2.8134578734772283e-06 -84.19230779834379 -3.531125038440127e-31 -6.3611093629270335e-15 -6.3611093629270335e-15
-4.0238410292658955e-05 93.78421783447266 -0.0011500309919938445 -10.076998992105064 -7.792527877168821 -21.608462671444375 12.168261925855354 17.920159067447273 -4.384060841978916 -2.206998583992923 8.411208487395108 -1.6418908916373747 0.0 0.0 -3.9756933518293955e-16 13.832679508781917 10.197511581860697 -2.844282085111686 -0.24933936189205078 20.24161625847579 -5.363402657997987 0.0 0.0 -2.1866313435061676e-15 -16.62546898738558 19.00098374871866 4.913364805372251 2.565422475421014e-06 1.0157270041697786e-06 -0.37193928985626856 23.834093109445423 8.817354316617752 177.65147313299036 122.09472074058219 -40.28881161464599 -174.16429133382215 1.548413450435388e-07 2.1830242945368244e-06 31.313867117342777 -3.531125038440127e-31 6.3611093629270335e-15 6.3611093629270335e-15 -128.0875597974491 55.53671871276253 125.86573852835613 -8.774766110972863e-07 5.753532379578533e-06 -83.84493291999154 0.0 0.0 6.3611093629270335e-15
